HIERARCHY
ROOT Hips
{
	OFFSET	0.00	0.00	0.00
	CHANNELS 6 Xposition Yposition Zposition Zrotation Xrotation Yrotation
	JOINT LeftUpLeg
	{
		OFFSET	 0.126116	-0.065224	 0.014019
		CHANNELS 3 Zrotation Xrotation Yrotation
		JOINT LeftLeg
		{
			OFFSET	 0.000000	 0.569914	 0.000000
			CHANNELS 3 Zrotation Xrotation Yrotation
			JOINT LeftFoot
			{
				OFFSET	 0.000000	 0.544423	 0.000000
				CHANNELS 3 Zrotation Xrotation Yrotation
				JOINT LeftToeBase
				{
					OFFSET	 0.000000	 0.207117	 0.000000
					CHANNELS 3 Zrotation Xrotation Yrotation
					End Site
					{
						OFFSET	 0.000000	 0.207117	 0.000000
					}
				}
			}
		}
	}
	JOINT RightUpLeg
	{
		OFFSET	-0.124023	-0.065224	 0.008373
		CHANNELS 3 Zrotation Xrotation Yrotation
		JOINT RightLeg
		{
			OFFSET	 0.000000	 0.570047	 0.000000
			CHANNELS 3 Zrotation Xrotation Yrotation
			JOINT RightFoot
			{
				OFFSET	 0.000000	 0.544354	 0.000000
				CHANNELS 3 Zrotation Xrotation Yrotation
				JOINT RightToeBase
				{
					OFFSET	 0.000000	 0.207540	 0.000000
					CHANNELS 3 Zrotation Xrotation Yrotation
					End Site
					{
						OFFSET	 0.000000	 0.207540	 0.000000
					}
				}
			}
		}
	}
	JOINT Spine
	{
		OFFSET	 0.000184	 0.117403	 0.007763
		CHANNELS 3 Zrotation Xrotation Yrotation
		JOINT Spine1
		{
			OFFSET	 0.000000	 0.137269	 0.000000
			CHANNELS 3 Zrotation Xrotation Yrotation
			JOINT Spine2
			{
				OFFSET	 0.000000	 0.156879	 0.000000
				CHANNELS 3 Zrotation Xrotation Yrotation
				JOINT LeftShoulder
				{
					OFFSET	 0.080501	 0.160143	 0.002496
					CHANNELS 3 Zrotation Xrotation Yrotation
					JOINT LeftArm
					{
						OFFSET	 0.000000	 0.164363	 0.000000
						CHANNELS 3 Zrotation Xrotation Yrotation
						JOINT LeftForeArm
						{
							OFFSET	 0.000000	 0.364576	 0.000000
							CHANNELS 3 Zrotation Xrotation Yrotation
							JOINT LeftHand
							{
								OFFSET	 0.000000	 0.360812	 0.000000
								CHANNELS 3 Zrotation Xrotation Yrotation
								JOINT LeftHandIndex1
								{
									OFFSET	 0.000000	 0.086006	 0.000000
									CHANNELS 3 Zrotation Xrotation Yrotation
									JOINT LeftHandIndex2
									{
										OFFSET	 0.000000	 0.047237	 0.000000
										CHANNELS 3 Zrotation Xrotation Yrotation
										JOINT LeftHandIndex3
										{
											OFFSET	-0.004284	 0.038165	 0.000551
											CHANNELS 3 Zrotation Xrotation Yrotation
											End Site
											{
												OFFSET	-0.004284	 0.038165	 0.000551
											}
										}
									}
								}
							}
						}
					}
				}
				JOINT Neck
				{
					OFFSET	 0.000000	 0.176489	 0.000000
					CHANNELS 3 Zrotation Xrotation Yrotation
					JOINT Head
					{
						OFFSET	 0.000000	 0.077941	 0.001747
						CHANNELS 3 Zrotation Xrotation Yrotation
						End Site
						{
							OFFSET	 0.000000	 0.077941	 0.001747
						}
					}
				}
				JOINT RightShoulder
				{
					OFFSET	-0.080363	 0.159706	-0.000306
					CHANNELS 3 Zrotation Xrotation Yrotation
					JOINT RightArm
					{
						OFFSET	 0.000000	 0.164196	 0.000000
						CHANNELS 3 Zrotation Xrotation Yrotation
						JOINT RightForeArm
						{
							OFFSET	 0.000000	 0.365611	 0.000000
							CHANNELS 3 Zrotation Xrotation Yrotation
							JOINT RightHand
							{
								OFFSET	 0.000000	 0.360648	 0.000000
								CHANNELS 3 Zrotation Xrotation Yrotation
								JOINT RightHandIndex1
								{
									OFFSET	 0.000000	 0.069977	 0.000000
									CHANNELS 3 Zrotation Xrotation Yrotation
									JOINT RightHandIndex2
									{
										OFFSET	 0.000000	 0.052305	 0.000000
										CHANNELS 3 Zrotation Xrotation Yrotation
										JOINT RightHandIndex3
										{
											OFFSET	 0.009002	 0.042196	 0.000782
											CHANNELS 3 Zrotation Xrotation Yrotation
											End Site
											{
												OFFSET	 0.009002	 0.042196	 0.000782
											}
										}
									}
								}
							}
						}
					}
				}
			}
		}
	}
}
MOTION
Frames:    4
Frame Time: 0.03333334
 0.018999	 1.267536	 0.002393	-0.292961	 2.567271	-179.301700	-176.119200	 5.100638	-24.426090	 3.315002	-16.325300	 5.070428	-0.117748	 69.016140	 0.851389	 1.331492	 28.938720	-2.729976	 176.481500	 5.825564	 31.917900	-5.560892	-17.728650	-7.140557	-0.862531	 71.358690	 0.551880	-1.291779	 28.411830	 2.863150	-2.314157	 4.483760	 25.892640	-0.733807	 0.503397	 4.899251	-0.967282	 3.794981	-14.647380	-113.441600	 5.213497	 92.957800	 62.467720	 32.368220	-0.845610	 11.586910	-0.253964	-7.863535	-16.355890	 24.972920	-18.427770	-6.580301	 5.266122	 0.000000	 0.000000	 0.000000	 0.000000	 0.000000	 0.000000	 0.000000	 4.769011	-0.213999	-0.598699	 5.041517	 0.468133	-2.759278	 114.234800	-4.518772	-88.271680	-36.281530	 42.245530	-30.490840	-88.496770	-1.992196	 5.699782	 8.352914	-29.042780	 18.084960	-0.779216	 22.029390	 0.862915	 12.379970	 20.512840	-4.592158	-8.455846	 9.040702	-0.269495
 0.021598	 1.266559	 0.007276	-0.396309	 2.880813	-179.730500	-176.017700	 5.187051	-24.804400	 3.363244	-16.549720	 5.098947	-0.187603	 68.900680	 0.851220	 1.331492	 28.938720	-2.729976	 176.442200	 6.294451	 31.575890	-5.841529	-18.560550	-8.066348	-3.813887	 71.678830	 3.407278	-1.291963	 28.417290	 2.923200	-0.993479	 5.044855	 10.284100	-0.681957	 1.047149	 4.788180	-1.126606	 3.609253	-15.017470	-113.444100	 5.073249	 92.934350	 59.163350	 35.390600	 0.857284	 6.976874	-0.258272	 2.263873	-11.979460	 20.684860	-10.263320	-6.580301	 5.266122	 0.000000	 0.000000	 0.000000	 0.000000	 0.000000	 0.000000	 0.000000	 4.259915	-0.152191	-0.738974	 4.826823	 0.358448	-3.119866	 114.214700	-4.380166	-88.361210	-29.273200	 45.812010	-31.765680	-50.298400	-1.656243	-3.081768	 1.012117	-21.452750	 42.913720	-0.789901	 22.302040	 0.866944	 12.396250	 20.779270	-4.654680	-8.457898	 9.196389	-0.279318
 0.022140	 1.265947	 0.010873	-0.221809	 3.356591	 178.456700	-175.548600	 4.608523	-26.616190	 3.431761	-16.867580	 4.141416	-3.007531	 68.957300	 3.657831	 1.331492	 28.938720	-2.729976	 176.769700	 6.518378	 29.617500	-6.009020	-19.053040	-9.975208	-9.737231	 71.648740	 9.457790	-1.294426	 28.450230	 2.947351	 0.544995	 5.223809	-5.992836	-0.505831	 1.107833	 4.497333	-1.145318	 3.682822	-15.248450	-113.447400	 5.039606	 92.967580	 44.708200	 43.008850	 9.541298	 15.719350	-0.254830	 12.579970	-2.448449	 10.304010	 1.053486	-6.580301	 5.266122	 0.000000	 0.000000	 0.000000	 0.000000	 0.000000	 0.000000	 0.000000	 3.743830	-0.091250	-0.823545	 4.489347	 0.561454	-3.237913	 114.198700	-4.269233	-88.435130	-15.208100	 35.646820	-40.452480	-69.746020	-1.696196	-13.980280	 26.347370	-8.836369	 54.089270	-0.660993	 18.944020	 0.821525	 12.218890	 17.497010	-3.896791	-8.435719	 7.603780	-0.178832
 0.022419	 1.266140	 0.011999	-0.232884	 3.451208	 178.253500	-175.564300	 4.468938	-26.732000	 3.404880	-16.742970	 3.907583	-3.587649	 68.835700	 4.276458	 1.331492	 28.938720	-2.729976	 176.790200	 6.448160	 29.400570	-5.987889	-18.991080	-9.576743	-8.570730	 71.537500	 8.169660	-1.298807	 28.505370	 2.910008	 1.727227	 4.884823	-19.638200	-0.406824	 1.419955	 4.357378	-1.099054	 3.253780	-15.159710	-113.448000	 4.964612	 92.942710	 41.985440	 44.722990	 11.401690	 24.288650	-0.254660	 22.486140	-0.293241	 5.598097	 10.174560	-6.580301	 5.266122	 0.000000	 0.000000	 0.000000	 0.000000	 0.000000	 0.000000	 0.000000	 3.575670	-0.275635	-0.796963	 4.172723	 0.458018	-3.093684	 114.193700	-4.238742	-88.462390	-12.905610	 36.232930	-42.171500	-73.078640	-1.420837	-23.886150	 28.735250	-8.448639	 49.988780	-0.581898	 16.813140	 0.797237	 12.131250	 15.413200	-3.428046	-8.417908	 6.447717	-0.105701
